<svg width="654" height="653" viewBox="0 0 654 653" fill="none" xmlns="http://www.w3.org/2000/svg">
<path d="M331.515 611.807C482.185 611.807 604.327 489.665 604.327 338.995C604.327 188.326 482.185 66.1836 331.515 66.1836C180.845 66.1836 58.7031 188.326 58.7031 338.995C58.7031 489.665 180.845 611.807 331.515 611.807Z" fill="#0E0E1E"/>
<path d="M192.198 573.82C200.356 620.706 214.427 649.899 233.306 652.177C277.087 657.457 330.156 515.997 351.835 336.221C373.514 156.445 355.6 6.4235 311.815 1.14333C291.708 -1.28325 269.643 27.2404 249.561 76.2072" stroke="white" stroke-miterlimit="10"/>
<path d="M92.6878 203.359C38.2436 211.037 3.81167 225.868 1.31118 246.43C-4.00595 290.207 137.405 343.399 317.165 365.238C496.925 387.077 646.958 369.295 652.275 325.518C654.39 308.117 633.327 289.234 595.885 271.419" stroke="white" stroke-miterlimit="10"/>
<path d="M603.407 398.622C625.423 394.065 639.284 385.968 642.561 374.254C646.806 359.074 632.702 339.875 604.869 319.243C554.818 282.142 460.362 240.406 348.296 209.074C173.902 160.317 22.8998 155.221 11.0297 197.692C5.87268 216.132 27.7981 240.513 68.5327 266.183" stroke="white" stroke-miterlimit="10"/>
<path d="M179.154 178.927C181.875 178.927 184.081 176.721 184.081 174C184.081 171.279 181.875 169.073 179.154 169.073C176.433 169.073 174.227 171.279 174.227 174C174.227 176.721 176.433 178.927 179.154 178.927Z" fill="white"/>
<path d="M319.927 511.854C322.648 511.854 324.854 509.648 324.854 506.927C324.854 504.206 322.648 502 319.927 502C317.206 502 315 504.206 315 506.927C315 509.648 317.206 511.854 319.927 511.854Z" fill="white"/>
<path d="M649.073 342.959C651.794 342.959 654 340.753 654 338.032C654 335.311 651.794 333.105 649.073 333.105C646.351 333.105 644.146 335.311 644.146 338.032C644.146 340.753 646.351 342.959 649.073 342.959Z" fill="white"/>
</svg>
