<svg width="96" height="17" viewBox="0 0 96 17" fill="none" xmlns="http://www.w3.org/2000/svg">
<path d="M4.44344 4.02591H0V0.980957H12.3185V4.02591H7.87501V16.6029H4.44344V4.02591Z" fill="#0E0E1E"/>
<path d="M17.1357 0.980957H23.163C23.9549 0.980957 24.7068 1.05718 25.4187 1.21164C26.1306 1.36609 26.7525 1.62284 27.2885 1.98391C27.8244 2.34497 28.2484 2.8304 28.5643 3.44019C28.8803 4.04998 29.0383 4.81223 29.0383 5.7229C29.0383 6.82615 28.7523 7.76491 28.1804 8.53718C27.6084 9.30945 26.7725 9.79889 25.6727 10.0055L29.6322 16.6029H25.5167L22.2611 10.3585H20.5673V16.6029H17.1357V0.980957ZM20.5673 7.44597H22.5911C22.899 7.44597 23.225 7.43594 23.5689 7.41388C23.9129 7.39181 24.2249 7.32562 24.5048 7.21529C24.7828 7.10497 25.0148 6.93246 25.1967 6.69777C25.3807 6.46308 25.4727 6.13211 25.4727 5.70485C25.4727 5.30768 25.3927 4.99075 25.2307 4.75606C25.0687 4.52137 24.8648 4.34084 24.6148 4.21647C24.3648 4.09211 24.0789 4.00786 23.7569 3.96172C23.435 3.91559 23.119 3.89553 22.811 3.89553H20.5673V7.44597Z" fill="#0E0E1E"/>
<path d="M47.6021 10.5792C47.6021 11.5059 47.4621 12.3584 47.1841 13.1387C46.9062 13.919 46.4922 14.595 45.9423 15.1687C45.3924 15.7424 44.7064 16.1917 43.8846 16.5146C43.0627 16.8376 42.1168 17.0001 41.0469 17.0001C39.961 17.0001 39.0092 16.8376 38.1873 16.5146C37.3654 16.1917 36.6795 15.7424 36.1295 15.1687C35.5796 14.595 35.1656 13.919 34.8877 13.1387C34.6097 12.3584 34.4697 11.5059 34.4697 10.5792V0.980957H37.9013V10.4468C37.9013 10.9322 37.9773 11.3815 38.1313 11.7928C38.2852 12.204 38.5012 12.561 38.7812 12.8639C39.0592 13.1648 39.3931 13.4015 39.7811 13.57C40.169 13.7385 40.591 13.8247 41.0449 13.8247C41.4988 13.8247 41.9168 13.7405 42.2988 13.57C42.6807 13.4015 43.0087 13.1648 43.2886 12.8639C43.5666 12.563 43.7826 12.206 43.9385 11.7928C44.0925 11.3815 44.1685 10.9322 44.1685 10.4468V0.980957H47.6001V10.5792H47.6021Z" fill="#0E0E1E"/>
<path d="M61.5485 4.79827C61.2706 4.44524 60.8926 4.18447 60.4167 4.01597C59.9407 3.84748 59.4888 3.76122 59.0628 3.76122C58.8129 3.76122 58.5569 3.79131 58.2929 3.84948C58.029 3.90765 57.779 3.99993 57.545 4.1263C57.3111 4.25066 57.1191 4.41715 56.9731 4.62176C56.8271 4.82836 56.7531 5.0791 56.7531 5.37196C56.7531 5.84335 56.9291 6.2024 57.2811 6.45314C57.633 6.70388 58.077 6.9165 58.6129 7.09302C59.1488 7.26954 59.7228 7.44606 60.3387 7.62258C60.9546 7.7991 61.5305 8.04984 62.0645 8.37279C62.6004 8.69574 63.0423 9.13102 63.3943 9.67462C63.7463 10.2182 63.9222 10.9464 63.9222 11.859C63.9222 12.7276 63.7603 13.4858 63.4383 14.1317C63.1143 14.7796 62.6804 15.3152 62.1305 15.7425C61.5805 16.1697 60.9426 16.4846 60.2167 16.6913C59.4908 16.8979 58.7249 17.0002 57.917 17.0002C56.9051 17.0002 55.9672 16.8457 55.1013 16.5368C54.2354 16.2279 53.4295 15.7284 52.6816 15.0364L55.1233 12.3445C55.4753 12.8159 55.9192 13.1789 56.4532 13.4377C56.9891 13.6964 57.543 13.8248 58.113 13.8248C58.3909 13.8248 58.6749 13.7907 58.9609 13.7245C59.2468 13.6583 59.5028 13.56 59.7308 13.4277C59.9587 13.2953 60.1407 13.1268 60.2807 12.9202C60.4207 12.7136 60.4887 12.4708 60.4887 12.192C60.4887 11.7206 60.3087 11.3495 59.9487 11.0787C59.5888 10.8059 59.1388 10.5753 58.5949 10.3847C58.051 10.1941 57.465 10.0016 56.8351 9.81102C56.2052 9.62046 55.6173 9.3617 55.0753 9.03875C54.5334 8.7158 54.0815 8.28854 53.7235 7.75898C53.3636 7.22942 53.1836 6.53137 53.1836 5.66282C53.1836 4.82435 53.3476 4.08819 53.6775 3.45633C54.0075 2.82447 54.4474 2.29491 54.9973 1.86765C55.5473 1.4404 56.1812 1.12146 56.9011 0.908835C57.619 0.696209 58.3589 0.587891 59.1228 0.587891C60.0027 0.587891 60.8526 0.712256 61.6745 0.962994C62.4964 1.21373 63.2363 1.63296 63.8962 2.22069L61.5485 4.79827Z" fill="#0E0E1E"/>
<path d="M88.1251 4.02591H83.6816V0.980957H96.0001V4.02591H91.5567V16.6029H88.1251V4.02591Z" fill="#0E0E1E"/>
<path d="M75.1028 0L67.9497 16.6028L75.1268 13.594L82.3039 16.6028L75.1028 0ZM75.1028 5.01475L78.3064 12.5389L75.1268 11.0405L75.1028 5.01475Z" fill="#0E0E1E"/>
</svg>
