<svg width="89" height="71" viewBox="0 0 89 71" fill="none" xmlns="http://www.w3.org/2000/svg">
<path d="M65.8075 29.4878C67.0269 29.4878 68.0154 28.4993 68.0154 27.2799C68.0154 26.0605 67.0269 25.072 65.8075 25.072C64.5881 25.072 63.5996 26.0605 63.5996 27.2799C63.5996 28.4993 64.5881 29.4878 65.8075 29.4878Z" stroke="white" stroke-miterlimit="10"/>
<path d="M49.6582 54.9339L52.2761 52.316" stroke="white" stroke-miterlimit="10"/>
<path d="M53.4746 51.1173L56.0926 48.4994" stroke="white" stroke-miterlimit="10"/>
<path d="M56.0926 54.9339L53.4746 52.316" stroke="white" stroke-miterlimit="10"/>
<path d="M52.2761 51.1175L49.6582 48.4995" stroke="white" stroke-miterlimit="10"/>
<path d="M32.0744 25.9709C32.0744 22.6354 33.754 19.6862 36.3168 17.9357C34.7476 16.8633 32.8551 16.2324 30.8128 16.2324C25.4349 16.2324 21.0664 20.593 21.0664 25.9788C21.0664 31.3645 25.427 35.7251 30.8128 35.7251C32.8551 35.7251 34.7476 35.0943 36.3168 34.0219C33.754 32.2556 32.0744 29.3143 32.0744 25.9709Z" stroke="white" stroke-miterlimit="10"/>
</svg>
