<?xml version="1.0" encoding="utf-8"?>
<!-- Generator: Adobe Illustrator 23.0.1, SVG Export Plug-In . SVG Version: 6.00 Build 0)  -->
<svg version="1.1" id="Layer_1" xmlns="http://www.w3.org/2000/svg" xmlns:xlink="http://www.w3.org/1999/xlink" x="0px" y="0px"
	 viewBox="0 0 24 24" style="enable-background:new 0 0 24 24;" xml:space="preserve">
<style type="text/css">
	.st0{fill:#838891;stroke:#838891;stroke-width:0.25;stroke-miterlimit:10;}
</style>
<path class="st0" d="M13.41,21.29l2.34-7.02l4.76-4.76c2.92-2.92,2.69-7.74,2.68-7.95c-0.02-0.41-0.35-0.73-0.75-0.75
	c-0.2-0.01-5.03-0.24-7.94,2.68L9.73,8.25l-7.16,2.39c-0.26,0.09-0.46,0.3-0.52,0.57c-0.06,0.27,0.02,0.55,0.21,0.75l2.45,2.45
	L9.6,19.3l2.44,2.44l0.01,0.01c0.31,0.31,0.82,0.31,1.13,0C13.31,21.62,13.39,21.46,13.41,21.29z M7.21,10.77l-1.94,1.94L4.3,11.74
	L7.21,10.77z M10.73,9.51l4.89-4.89c1.79-1.79,4.62-2.14,5.97-2.21c-0.06,1.34-0.41,4.17-2.21,5.97l-4.89,4.89l-4.33,4.33
	l-1.32-1.32l4.33-4.33c0.31-0.31,0.31-0.82,0-1.13s-0.82-0.31-1.13,0l-4.33,4.33L6.4,13.84L10.73,9.51z M11.29,18.73l1.94-1.94
	l-0.97,2.9L11.29,18.73z M3.39,16.85l-1.22,1.22c-0.31,0.31-0.82,0.31-1.13,0s-0.31-0.82,0-1.13l1.22-1.22
	c0.31-0.31,0.82-0.31,1.13,0C3.7,16.03,3.7,16.53,3.39,16.85z M5.84,19.29l-2.45,2.45c-0.31,0.31-0.82,0.31-1.13,0
	s-0.31-0.82,0-1.13l2.45-2.45c0.31-0.31,0.82-0.31,1.13,0C6.15,18.48,6.15,18.98,5.84,19.29z M8.28,21.74l-1.22,1.22
	c-0.31,0.31-0.82,0.31-1.13,0s-0.31-0.82,0-1.13l1.22-1.22c0.31-0.31,0.82-0.31,1.13,0C8.59,20.92,8.59,21.43,8.28,21.74z
	 M16.93,5.94c0.31-0.31,0.82-0.31,1.13,0s0.31,0.82,0,1.13s-0.82,0.31-1.13,0C16.62,6.75,16.62,6.25,16.93,5.94z"/>
</svg>
