<svg width="481" height="85" viewBox="0 0 481 85" fill="none" xmlns="http://www.w3.org/2000/svg">
<path d="M22.22 20.0699H0V4.88989H61.6V20.0699H39.38V82.7699H22.22V20.0699Z" fill="white"/>
<path d="M85.6899 4.88989H115.83C119.79 4.88989 123.55 5.26989 127.11 6.03989C130.67 6.80989 133.78 8.08989 136.46 9.88989C139.14 11.6899 141.26 14.1099 142.84 17.1499C144.42 20.1899 145.21 23.9899 145.21 28.5299C145.21 34.0299 143.78 38.7099 140.92 42.5599C138.06 46.4099 133.88 48.8499 128.38 49.8799L148.18 82.7699H127.6L111.32 51.6399H102.85V82.7699H85.6899V4.88989ZM102.85 37.1199H112.97C114.51 37.1199 116.14 37.0699 117.86 36.9599C119.58 36.8499 121.14 36.5199 122.54 35.9699C123.93 35.4199 125.09 34.5599 126 33.3899C126.92 32.2199 127.38 30.5699 127.38 28.4399C127.38 26.4599 126.98 24.8799 126.17 23.7099C125.36 22.5399 124.34 21.6399 123.09 21.0199C121.84 20.3999 120.41 19.9799 118.8 19.7499C117.19 19.5199 115.61 19.4199 114.07 19.4199H102.85V37.1199Z" fill="white"/>
<path d="M238.04 52.7399C238.04 57.3599 237.34 61.6099 235.95 65.4999C234.56 69.3899 232.49 72.7599 229.74 75.6199C226.99 78.4799 223.56 80.7199 219.45 82.3299C215.34 83.9399 210.61 84.7499 205.26 84.7499C199.83 84.7499 195.07 83.9399 190.96 82.3299C186.85 80.7199 183.42 78.4799 180.67 75.6199C177.92 72.7599 175.85 69.3899 174.46 65.4999C173.07 61.6099 172.37 57.3599 172.37 52.7399V4.88989H189.53V52.0799C189.53 54.4999 189.91 56.7399 190.68 58.7899C191.45 60.8399 192.53 62.6199 193.93 64.1299C195.32 65.6299 196.99 66.8099 198.93 67.6499C200.87 68.4899 202.98 68.9199 205.25 68.9199C207.52 68.9199 209.61 68.4999 211.52 67.6499C213.43 66.8099 215.07 65.6299 216.47 64.1299C217.86 62.6299 218.94 60.8499 219.72 58.7899C220.49 56.7399 220.87 54.4999 220.87 52.0799V4.88989H238.03V52.7399H238.04Z" fill="white"/>
<path d="M307.78 23.9199C306.39 22.1599 304.5 20.8599 302.12 20.0199C299.74 19.1799 297.48 18.7499 295.35 18.7499C294.1 18.7499 292.82 18.8999 291.5 19.1899C290.18 19.4799 288.93 19.9399 287.76 20.5699C286.59 21.1899 285.63 22.0199 284.9 23.0399C284.17 24.0699 283.8 25.3199 283.8 26.7799C283.8 29.1299 284.68 30.9199 286.44 32.1699C288.2 33.4199 290.42 34.4799 293.1 35.3599C295.78 36.2399 298.65 37.1199 301.73 37.9999C304.81 38.8799 307.69 40.1299 310.36 41.7399C313.04 43.3499 315.25 45.5199 317.01 48.2299C318.77 50.9399 319.65 54.5699 319.65 59.1199C319.65 63.4499 318.84 67.2299 317.23 70.4499C315.61 73.6799 313.44 76.3499 310.69 78.4799C307.94 80.6099 304.75 82.1799 301.12 83.2099C297.49 84.2399 293.66 84.7499 289.62 84.7499C284.56 84.7499 279.87 83.9799 275.54 82.4399C271.21 80.8999 267.18 78.4099 263.44 74.9599L275.65 61.5399C277.41 63.8899 279.63 65.6999 282.3 66.9899C284.98 68.2799 287.75 68.9199 290.6 68.9199C291.99 68.9199 293.41 68.7499 294.84 68.4199C296.27 68.0899 297.55 67.5999 298.69 66.9399C299.83 66.2799 300.74 65.4399 301.44 64.4099C302.14 63.3799 302.48 62.1699 302.48 60.7799C302.48 58.4299 301.58 56.5799 299.78 55.2299C297.98 53.8699 295.73 52.7199 293.01 51.7699C290.29 50.8199 287.36 49.8599 284.21 48.9099C281.06 47.9599 278.12 46.6699 275.41 45.0599C272.7 43.4499 270.44 41.3199 268.65 38.6799C266.85 36.0399 265.95 32.5599 265.95 28.2299C265.95 24.0499 266.77 20.3799 268.42 17.2299C270.07 14.0799 272.27 11.4399 275.02 9.30993C277.77 7.17993 280.94 5.58993 284.54 4.52993C288.13 3.46993 291.83 2.92993 295.65 2.92993C300.05 2.92993 304.3 3.54993 308.41 4.79993C312.52 6.04993 316.22 8.13993 319.52 11.0699L307.78 23.9199Z" fill="white"/>
<path d="M440.68 20.0699H418.46V4.88989H480.06V20.0699H457.84V82.7699H440.68V20.0699Z" fill="white"/>
<path d="M375.56 0L339.79 82.77L375.68 67.77L411.57 82.77L375.56 0ZM375.56 25L391.58 62.51L375.68 55.04L375.56 25Z" fill="white"/>
</svg>
