<svg width="89" height="71" viewBox="0 0 89 71" fill="none" xmlns="http://www.w3.org/2000/svg">
<path d="M28.6328 6.71838V12.9636" stroke="white" stroke-miterlimit="10"/>
<path d="M28.6328 15.8181V22.0634" stroke="white" stroke-miterlimit="10"/>
<path d="M20.9531 14.3909H27.1984" stroke="white" stroke-miterlimit="10"/>
<path d="M30.0605 14.3909H36.3058" stroke="white" stroke-miterlimit="10"/>
<path d="M22.5066 41.0592L19.8887 43.6772" stroke="white" stroke-miterlimit="10"/>
<path d="M18.6902 44.8758L16.0723 47.4937" stroke="white" stroke-miterlimit="10"/>
<path d="M16.0723 41.0594L18.6902 43.6773" stroke="white" stroke-miterlimit="10"/>
<path d="M19.8887 44.8758L22.5066 47.4937" stroke="white" stroke-miterlimit="10"/>
<path d="M19.5096 22.6309L15.0938 27.0467" stroke="white" stroke-miterlimit="10"/>
<path d="M13.076 29.0732L8.66016 33.489" stroke="white" stroke-miterlimit="10"/>
<path d="M8.66016 22.631L13.076 27.0468" stroke="white" stroke-miterlimit="10"/>
<path d="M15.0938 29.0732L19.5096 33.489" stroke="white" stroke-miterlimit="10"/>
<path d="M43.0566 30.004L45.856 32.8112" stroke="white" stroke-miterlimit="10"/>
<path d="M47.1406 34.0885L49.9399 36.8957" stroke="white" stroke-miterlimit="10"/>
<path d="M43.0566 36.8957L45.856 34.0885" stroke="white" stroke-miterlimit="10"/>
<path d="M47.1406 32.8111L49.9399 30.0039" stroke="white" stroke-miterlimit="10"/>
<path d="M32.0391 48.3926V54.6378" stroke="white" stroke-miterlimit="10"/>
<path d="M32.0391 57.5003V63.7455" stroke="white" stroke-miterlimit="10"/>
<path d="M24.3672 56.0735H30.6124" stroke="white" stroke-miterlimit="10"/>
<path d="M33.4746 56.073H39.712" stroke="white" stroke-miterlimit="10"/>
<path d="M51.5168 20.5493C52.4052 20.5493 53.1254 19.8291 53.1254 18.9407C53.1254 18.0522 52.4052 17.332 51.5168 17.332C50.6284 17.332 49.9082 18.0522 49.9082 18.9407C49.9082 19.8291 50.6284 20.5493 51.5168 20.5493Z" stroke="white" stroke-miterlimit="10"/>
<path d="M15.095 58.281C15.9834 58.281 16.7036 57.5608 16.7036 56.6723C16.7036 55.7839 15.9834 55.0637 15.095 55.0637C14.2065 55.0637 13.4863 55.7839 13.4863 56.6723C13.4863 57.5608 14.2065 58.281 15.095 58.281Z" stroke="white" stroke-miterlimit="10"/>
<path d="M14.2906 15.9994C14.7348 15.9994 15.095 15.6393 15.095 15.1951C15.095 14.7508 14.7348 14.3907 14.2906 14.3907C13.8464 14.3907 13.4863 14.7508 13.4863 15.1951C13.4863 15.6393 13.8464 15.9994 14.2906 15.9994Z" stroke="white" stroke-miterlimit="10"/>
<path d="M8.65978 8.32694C9.10399 8.32694 9.46409 7.96684 9.46409 7.52263C9.46409 7.07843 9.10399 6.71832 8.65978 6.71832C8.21557 6.71832 7.85547 7.07843 7.85547 7.52263C7.85547 7.96684 8.21557 8.32694 8.65978 8.32694Z" stroke="white" stroke-miterlimit="10"/>
<path d="M56.7926 50.088C57.2368 50.088 57.5969 49.7279 57.5969 49.2837C57.5969 48.8395 57.2368 48.4794 56.7926 48.4794C56.3484 48.4794 55.9883 48.8395 55.9883 49.2837C55.9883 49.7279 56.3484 50.088 56.7926 50.088Z" stroke="white" stroke-miterlimit="10"/>
<path d="M36.5985 43.2671C37.8179 43.2671 38.8064 42.2786 38.8064 41.0592C38.8064 39.8398 37.8179 38.8513 36.5985 38.8513C35.3791 38.8513 34.3906 39.8398 34.3906 41.0592C34.3906 42.2786 35.3791 43.2671 36.5985 43.2671Z" stroke="white" stroke-miterlimit="10"/>
<path d="M70.3477 61.9399V55.6947" stroke="white" stroke-miterlimit="10"/>
<path d="M70.3477 52.8401V46.5949" stroke="white" stroke-miterlimit="10"/>
<path d="M78.0206 54.2674H71.7754" stroke="white" stroke-miterlimit="10"/>
<path d="M68.921 54.2674H62.6758" stroke="white" stroke-miterlimit="10"/>
<path d="M71.498 40.9175L74.1239 38.2995" stroke="white" stroke-miterlimit="10"/>
<path d="M75.3223 37.1009L77.9402 34.4829" stroke="white" stroke-miterlimit="10"/>
<path d="M77.9402 40.9175L75.3223 38.2995" stroke="white" stroke-miterlimit="10"/>
<path d="M74.1239 37.1008L71.498 34.4828" stroke="white" stroke-miterlimit="10"/>
<path d="M70.6704 16.4016L67.8711 13.6023" stroke="white" stroke-miterlimit="10"/>
<path d="M66.5864 12.3253L63.7871 9.51813" stroke="white" stroke-miterlimit="10"/>
<path d="M70.6704 9.5177L67.8711 12.3249" stroke="white" stroke-miterlimit="10"/>
<path d="M66.5864 13.6023L63.7871 16.4016" stroke="white" stroke-miterlimit="10"/>
<path d="M48.8918 58.9985C49.7802 58.9985 50.5004 58.2783 50.5004 57.3899C50.5004 56.5015 49.7802 55.7812 48.8918 55.7812C48.0034 55.7812 47.2832 56.5015 47.2832 57.3899C47.2832 58.2783 48.0034 58.9985 48.8918 58.9985Z" stroke="white" stroke-miterlimit="10"/>
<path d="M76.3332 23.6718C77.2216 23.6718 77.9418 22.9516 77.9418 22.0632C77.9418 21.1748 77.2216 20.4546 76.3332 20.4546C75.4448 20.4546 74.7246 21.1748 74.7246 22.0632C74.7246 22.9516 75.4448 23.6718 76.3332 23.6718Z" stroke="white" stroke-miterlimit="10"/>
<path d="M24.3668 27.8512C24.811 27.8512 25.1711 27.4911 25.1711 27.0469C25.1711 26.6027 24.811 26.2426 24.3668 26.2426C23.9226 26.2426 23.5625 26.6027 23.5625 27.0469C23.5625 27.4911 23.9226 27.8512 24.3668 27.8512Z" stroke="white" stroke-miterlimit="10"/>
<path d="M22.5074 7.52256C22.9516 7.52256 23.3117 7.16246 23.3117 6.71825C23.3117 6.27404 22.9516 5.91394 22.5074 5.91394C22.0632 5.91394 21.7031 6.27404 21.7031 6.71825C21.7031 7.16246 22.0632 7.52256 22.5074 7.52256Z" stroke="white" stroke-miterlimit="10"/>
<path d="M45.8551 11.1184C46.2993 11.1184 46.6594 10.7583 46.6594 10.3141C46.6594 9.86987 46.2993 9.50977 45.8551 9.50977C45.4109 9.50977 45.0508 9.86987 45.0508 10.3141C45.0508 10.7583 45.4109 11.1184 45.8551 11.1184Z" stroke="white" stroke-miterlimit="10"/>
<path d="M39.4762 22.4496C39.9204 22.4496 40.2805 22.0895 40.2805 21.6453C40.2805 21.2011 39.9204 20.841 39.4762 20.841C39.032 20.841 38.6719 21.2011 38.6719 21.6453C38.6719 22.0895 39.032 22.4496 39.4762 22.4496Z" stroke="white" stroke-miterlimit="10"/>
<path d="M63.818 25.6432C64.2622 25.6432 64.6223 25.2831 64.6223 24.8389C64.6223 24.3947 64.2622 24.0346 63.818 24.0346C63.3738 24.0346 63.0137 24.3947 63.0137 24.8389C63.0137 25.2831 63.3738 25.6432 63.818 25.6432Z" stroke="white" stroke-miterlimit="10"/>
<path d="M61.6103 37.7C62.8296 37.7 63.8182 36.7115 63.8182 35.4921C63.8182 34.2727 62.8296 33.2842 61.6103 33.2842C60.3909 33.2842 59.4023 34.2727 59.4023 35.4921C59.4023 36.7115 60.3909 37.7 61.6103 37.7Z" stroke="white" stroke-miterlimit="10"/>
</svg>
