<svg width="89" height="71" viewBox="0 0 89 71" fill="none" xmlns="http://www.w3.org/2000/svg">
<path d="M64.5916 36.2017L60.1758 40.6175" stroke="white" stroke-miterlimit="10"/>
<path d="M58.1501 42.644L53.7422 47.0598" stroke="white" stroke-miterlimit="10"/>
<path d="M53.7422 36.2017L58.1501 40.6175" stroke="white" stroke-miterlimit="10"/>
<path d="M60.1758 42.644L64.5916 47.0598" stroke="white" stroke-miterlimit="10"/>
<path d="M22.7129 46.2715L25.5122 49.0787" stroke="white" stroke-miterlimit="10"/>
<path d="M26.7969 50.3561L29.5962 53.1633" stroke="white" stroke-miterlimit="10"/>
<path d="M22.7129 53.1633L25.5122 50.3561" stroke="white" stroke-miterlimit="10"/>
<path d="M26.7969 49.0787L29.5962 46.2715" stroke="white" stroke-miterlimit="10"/>
<path d="M61.1465 17.4028L63.9458 20.2022" stroke="white" stroke-miterlimit="10"/>
<path d="M65.2305 21.4795L68.0298 24.2867" stroke="white" stroke-miterlimit="10"/>
<path d="M61.1465 24.2867L63.9458 21.4795" stroke="white" stroke-miterlimit="10"/>
<path d="M65.2305 20.2022L68.0298 17.4028" stroke="white" stroke-miterlimit="10"/>
<path d="M38.0723 49.3071V43.0619" stroke="white" stroke-miterlimit="10"/>
<path d="M38.0723 40.1995V33.9542" stroke="white" stroke-miterlimit="10"/>
<path d="M45.7452 41.6346H39.5078" stroke="white" stroke-miterlimit="10"/>
<path d="M36.6456 41.6346H30.4004" stroke="white" stroke-miterlimit="10"/>
<path d="M66.8391 58.2807C67.7275 58.2807 68.4477 57.5605 68.4477 56.6721C68.4477 55.7837 67.7275 55.0635 66.8391 55.0635C65.9507 55.0635 65.2305 55.7837 65.2305 56.6721C65.2305 57.5605 65.9507 58.2807 66.8391 58.2807Z" stroke="white" stroke-miterlimit="10"/>
<path d="M48.9719 55.8759C49.8603 55.8759 50.5805 55.1557 50.5805 54.2673C50.5805 53.3788 49.8603 52.6586 48.9719 52.6586C48.0835 52.6586 47.3633 53.3788 47.3633 54.2673C47.3633 55.1557 48.0835 55.8759 48.9719 55.8759Z" stroke="white" stroke-miterlimit="10"/>
<path d="M71.3899 13.7913C72.2783 13.7913 72.9985 13.0711 72.9985 12.1827C72.9985 11.2943 72.2783 10.5741 71.3899 10.5741C70.5015 10.5741 69.7812 11.2943 69.7812 12.1827C69.7812 13.0711 70.5015 13.7913 71.3899 13.7913Z" stroke="white" stroke-miterlimit="10"/>
<path d="M14.552 15.4C15.4404 15.4 16.1606 14.6798 16.1606 13.7914C16.1606 12.903 15.4404 12.1828 14.552 12.1828C13.6636 12.1828 12.9434 12.903 12.9434 13.7914C12.9434 14.6798 13.6636 15.4 14.552 15.4Z" stroke="white" stroke-miterlimit="10"/>
<path d="M24.109 32.0855C24.5532 32.0855 24.9133 31.7254 24.9133 31.2812C24.9133 30.837 24.5532 30.4769 24.109 30.4769C23.6648 30.4769 23.3047 30.837 23.3047 31.2812C23.3047 31.7254 23.6648 32.0855 24.109 32.0855Z" stroke="white" stroke-miterlimit="10"/>
<path d="M69.7809 42.4391C70.2251 42.4391 70.5852 42.079 70.5852 41.6348C70.5852 41.1906 70.2251 40.8305 69.7809 40.8305C69.3367 40.8305 68.9766 41.1906 68.9766 41.6348C68.9766 42.079 69.3367 42.4391 69.7809 42.4391Z" stroke="white" stroke-miterlimit="10"/>
<path d="M16.1598 41.7214C16.604 41.7214 16.9641 41.3613 16.9641 40.9171C16.9641 40.4729 16.604 40.1128 16.1598 40.1128C15.7156 40.1128 15.3555 40.4729 15.3555 40.9171C15.3555 41.3613 15.7156 41.7214 16.1598 41.7214Z" stroke="white" stroke-miterlimit="10"/>
<path d="M12.943 53.9675C13.3872 53.9675 13.7473 53.6074 13.7473 53.1632C13.7473 52.719 13.3872 52.3589 12.943 52.3589C12.4988 52.3589 12.1387 52.719 12.1387 53.1632C12.1387 53.6074 12.4988 53.9675 12.943 53.9675Z" stroke="white" stroke-miterlimit="10"/>
<path d="M28.1942 26.2424C29.4136 26.2424 30.4021 25.2539 30.4021 24.0345C30.4021 22.8151 29.4136 21.8266 28.1942 21.8266C26.9748 21.8266 25.9863 22.8151 25.9863 24.0345C25.9863 25.2539 26.9748 26.2424 28.1942 26.2424Z" stroke="white" stroke-miterlimit="10"/>
</svg>
