<svg width="89" height="71" viewBox="0 0 89 71" fill="none" xmlns="http://www.w3.org/2000/svg">
<path d="M61.2903 60.5479C62.1787 60.5479 62.8989 59.8277 62.8989 58.9393C62.8989 58.0508 62.1787 57.3306 61.2903 57.3306C60.4019 57.3306 59.6816 58.0508 59.6816 58.9393C59.6816 59.8277 60.4019 60.5479 61.2903 60.5479Z" stroke="white" stroke-miterlimit="10"/>
<path d="M50.4482 15.2068C51.6676 15.2068 52.6561 14.2183 52.6561 12.9989C52.6561 11.7795 51.6676 10.791 50.4482 10.791C49.2288 10.791 48.2402 11.7795 48.2402 12.9989C48.2402 14.2183 49.2288 15.2068 50.4482 15.2068Z" stroke="white" stroke-miterlimit="10"/>
<path d="M24.2832 59.2152L26.9012 56.5972" stroke="white" stroke-miterlimit="10"/>
<path d="M28.0996 55.3986L30.7176 52.7806" stroke="white" stroke-miterlimit="10"/>
<path d="M30.7176 59.2152L28.0996 56.5972" stroke="white" stroke-miterlimit="10"/>
<path d="M26.9012 55.3987L24.2832 52.7807" stroke="white" stroke-miterlimit="10"/>
<path d="M66.0137 22.2799L68.6316 19.6619" stroke="white" stroke-miterlimit="10"/>
<path d="M69.8301 18.4633L72.448 15.8453" stroke="white" stroke-miterlimit="10"/>
<path d="M72.448 22.2799L69.8301 19.6619" stroke="white" stroke-miterlimit="10"/>
<path d="M68.6316 18.4634L66.0137 15.8454" stroke="white" stroke-miterlimit="10"/>
<path d="M66.0133 45.4158C66.4575 45.4158 66.8176 45.0557 66.8176 44.6115C66.8176 44.1673 66.4575 43.8072 66.0133 43.8072C65.5691 43.8072 65.209 44.1673 65.209 44.6115C65.209 45.0557 65.5691 45.4158 66.0133 45.4158Z" stroke="white" stroke-miterlimit="10"/>
<path d="M53.0191 49.3191C53.4634 49.3191 53.8235 48.959 53.8235 48.5148C53.8235 48.0706 53.4634 47.7104 53.0191 47.7104C52.5749 47.7104 52.2148 48.0706 52.2148 48.5148C52.2148 48.959 52.5749 49.3191 53.0191 49.3191Z" stroke="white" stroke-miterlimit="10"/>
<path d="M38.3356 50.967C38.7798 50.967 39.1399 50.6069 39.1399 50.1627C39.1399 49.7185 38.7798 49.3584 38.3356 49.3584C37.8913 49.3584 37.5312 49.7185 37.5312 50.1627C37.5312 50.6069 37.8913 50.967 38.3356 50.967Z" stroke="white" stroke-miterlimit="10"/>
<path d="M18.9615 22.0119C18.9615 18.3688 21.5716 15.3329 25.0333 14.6706C24.5759 14.5838 24.1107 14.5365 23.6297 14.5365C19.4977 14.5365 16.1543 17.8799 16.1543 22.0119C16.1543 26.1438 19.4977 29.4872 23.6297 29.4872C24.1107 29.4872 24.5759 29.4399 25.0333 29.3532C21.5794 28.6987 18.9615 25.6628 18.9615 22.0119Z" stroke="white" stroke-miterlimit="10"/>
</svg>
