<?xml version="1.0" encoding="utf-8"?>
<!-- Generator: Adobe Illustrator 23.0.1, SVG Export Plug-In . SVG Version: 6.00 Build 0)  -->
<svg version="1.1" id="Layer_1" xmlns="http://www.w3.org/2000/svg" xmlns:xlink="http://www.w3.org/1999/xlink" x="0px" y="0px"
	 viewBox="0 0 48 44.82" style="enable-background:new 0 0 48 44.82;" xml:space="preserve">
<style type="text/css">
	.st0{fill:#FFFFFF;}
</style>
<g>
	<path class="st0" d="M24,0.77c-11.58,0-21,9.42-21,21s9.42,21,21,21s21-9.42,21-21S35.58,0.77,24,0.77z M24,40.77
		c-10.48,0-19-8.52-19-19s8.52-19,19-19s19,8.52,19,19S34.48,40.77,24,40.77z"/>
	<path class="st0" d="M25,21.36V6.77c0-0.55-0.45-1-1-1s-1,0.45-1,1v15c0,0.27,0.11,0.52,0.29,0.71l7.44,7.44
		c0.2,0.19,0.45,0.29,0.71,0.29c0.26,0,0.51-0.1,0.71-0.29c0.39-0.39,0.39-1.02,0-1.41L25,21.36z"/>
</g>
</svg>
