<?xml version="1.0" encoding="utf-8"?>
<!-- Generator: Adobe Illustrator 23.0.1, SVG Export Plug-In . SVG Version: 6.00 Build 0)  -->
<svg version="1.1" id="Layer_1" xmlns="http://www.w3.org/2000/svg" xmlns:xlink="http://www.w3.org/1999/xlink" x="0px" y="0px"
	 viewBox="0 0 24 24" style="enable-background:new 0 0 24 24;" xml:space="preserve">
<style type="text/css">
	.st0{fill:#AAB9C4;stroke:#AAB9C4;stroke-width:0.75;stroke-miterlimit:10;}
</style>
<g>
	<path class="st0" d="M17.61,11.37c0-3.09-2.52-5.62-5.62-5.62s-5.62,2.52-5.62,5.62c0,0.44,0.05,0.89,0.17,1.34
		c0.15,0.72,0.42,1.17,0.79,1.78c0.07,0.15,0.17,0.3,0.27,0.47c0.13,0.2,0.22,0.4,0.34,0.57c0.5,0.82,0.79,1.29,0.79,2.25v1.94
		c0,0.6,0.42,1.07,0.99,1.17c0.25,1.26,0.32,2.44,2.25,2.44s2.03-1.18,2.25-2.44c0.57-0.1,0.99-0.6,0.99-1.17v-1.94
		c0-0.97,0.3-1.46,0.79-2.25c0.1-0.17,0.22-0.37,0.34-0.57c0.1-0.17,0.2-0.32,0.27-0.47c0.37-0.62,0.64-1.07,0.79-1.78
		C17.56,12.26,17.61,11.81,17.61,11.37z M14.24,18.33v1.41c0.02,0.1-0.08,0.2-0.2,0.2h-4.1c-0.13,0-0.2-0.1-0.2-0.2v-1.41l0.02-0.98
		c0,0-0.08-0.47-0.2-0.88c-0.17-0.52-0.42-0.97-0.74-1.46c-0.1-0.17-0.22-0.34-0.32-0.54C8.4,14.3,8.3,14.13,8.23,14
		c-0.34-0.6-0.54-0.94-0.67-1.51c-0.1-0.37-0.15-0.74-0.15-1.11c0-2.55,2.08-4.63,4.63-4.63s4.63,2.08,4.63,4.63
		c-0.05,0.37-0.1,0.74-0.2,1.14c-0.13,0.54-0.32,0.91-0.67,1.48c-0.1,0.15-0.17,0.3-0.27,0.47c-0.13,0.2-0.22,0.4-0.32,0.54
		c-0.3,0.5-0.57,0.94-0.74,1.46c-0.13,0.39-0.2,0.88-0.2,0.88L14.24,18.33z M11.99,22.36c-0.91,0-0.97-0.39-1.24-1.43h2.5
		C12.98,21.97,12.9,22.36,11.99,22.36z"/>
	<path class="st0" d="M22.19,10.87h-2.05c-0.27,0-0.5,0.22-0.5,0.5s0.22,0.5,0.5,0.5h2.05c0.27,0,0.5-0.22,0.5-0.5
		C22.68,11.1,22.46,10.87,22.19,10.87z"/>
	<path class="st0" d="M17.73,6.12c0.13,0,0.25-0.05,0.34-0.15l1.46-1.46c0.2-0.2,0.2-0.5,0-0.7s-0.5-0.2-0.7,0l-1.46,1.46
		c-0.2,0.2-0.2,0.5,0,0.7C17.48,6.07,17.61,6.12,17.73,6.12z"/>
	<path class="st0" d="M11.99,3.72c0.27,0,0.5-0.22,0.5-0.5V1.17c0-0.27-0.22-0.5-0.5-0.5s-0.5,0.22-0.5,0.5v2.05
		C11.49,3.5,11.72,3.72,11.99,3.72z"/>
	<path class="st0" d="M5.9,5.97C6,6.07,6.13,6.12,6.25,6.12S6.5,6.07,6.59,5.97c0.2-0.2,0.2-0.5,0-0.7L5.13,3.82
		c-0.2-0.2-0.5-0.2-0.7,0s-0.2,0.5,0,0.7L5.9,5.97z"/>
	<path class="st0" d="M3.87,10.87H1.81c-0.27,0-0.5,0.22-0.5,0.5s0.22,0.5,0.5,0.5h2.05c0.27,0,0.5-0.22,0.5-0.5
		S4.14,10.87,3.87,10.87z"/>
	<path class="st0" d="M5.9,16.76l-1.46,1.46c-0.2,0.2-0.2,0.5,0,0.7c0.1,0.1,0.22,0.15,0.34,0.15c0.12,0,0.25-0.05,0.34-0.15
		l1.46-1.46c0.2-0.2,0.2-0.5,0-0.7C6.39,16.57,6.07,16.57,5.9,16.76z"/>
	<path class="st0" d="M18.08,16.76c-0.2-0.2-0.5-0.2-0.7,0s-0.2,0.5,0,0.7l1.46,1.46c0.1,0.1,0.22,0.15,0.34,0.15
		s0.25-0.05,0.34-0.15c0.2-0.2,0.2-0.5,0-0.7L18.08,16.76z"/>
</g>
</svg>
