<?xml version="1.0" encoding="utf-8"?>
<!-- Generator: Adobe Illustrator 23.0.1, SVG Export Plug-In . SVG Version: 6.00 Build 0)  -->
<svg version="1.1" id="Layer_1" xmlns="http://www.w3.org/2000/svg" xmlns:xlink="http://www.w3.org/1999/xlink" x="0px" y="0px"
	 viewBox="0 0 24 24" style="enable-background:new 0 0 24 24;" xml:space="preserve">
<style type="text/css">
	.st0{fill:#8197A9;stroke:#8197A9;stroke-width:0.7;stroke-linecap:round;stroke-linejoin:round;stroke-miterlimit:10;}
</style>
<path class="st0" d="M20.12,3.1c0,0-1.92,1.92-1.92,1.92L14.57,1.4c-0.12-0.12-0.28-0.17-0.45-0.16C14,1.26,13.88,1.31,13.79,1.4
	c-1.25,1.25-1.82,2.92-1.82,4.55h-0.01c0,1.4,0.4,2.79,1.37,3.94l-0.92,0.92l-0.01,0.01l0,0c-0.01,0.01-0.01,0.02-0.02,0.02
	L10.7,9.15c-0.22-0.21-0.56-0.21-0.78,0l-1.27,1.26L7.36,9.13l1.4-1.41c0.22-0.21,0.22-0.57,0-0.78c0,0,0,0,0,0l-3.1-3.11
	C5.54,3.7,5.38,3.64,5.21,3.66C5.08,3.67,4.97,3.73,4.88,3.82L1.43,7.29c-0.21,0.22-0.21,0.56,0,0.78l3.1,3.12
	c0.22,0.21,0.56,0.21,0.78,0l1.27-1.27l1.29,1.29l-4.59,4.58c-0.22,0.22-0.22,0.57,0,0.78c0,0,0,0,0,0l4.14,4.16
	c0.21,0.22,0.56,0.22,0.78,0.01c0,0,0,0,0.01-0.01l4.59-4.6l1.3,1.3l-1.26,1.27c-0.22,0.21-0.22,0.57,0,0.78c0,0,0,0,0,0l3.1,3.11
	c0.22,0.21,0.56,0.21,0.78,0l3.45-3.47c0.21-0.22,0.21-0.56,0-0.78l-3.1-3.12c-0.12-0.12-0.28-0.17-0.45-0.16
	c-0.12,0.01-0.24,0.07-0.33,0.16l-1.41,1.41l-1.29-1.29l1.26-1.26c0.22-0.21,0.22-0.56,0.01-0.78c0,0-0.01-0.01-0.01-0.01
	l-1.69-1.68c0.01-0.01,0.02-0.02,0.03-0.03l0.92-0.92c1.11,0.93,2.46,1.34,3.81,1.36c0.04,0,0.08,0,0.12,0c0,0,0,0,0,0c0,0,0,0,0,0
	c0.07,0,0.14-0.01,0.21-0.01c1.52-0.05,3.05-0.6,4.23-1.73c0.04-0.02,0.07-0.05,0.1-0.08c0.22-0.21,0.22-0.56,0.01-0.78
	c-0.01-0.01-0.01-0.01-0.02-0.02l-3.62-3.61c0,0,1.93-1.93,1.93-1.92L20.12,3.1z M14.23,2.62l7.15,7.16c-0.6,0.48-1.28,0.81-2,0.99
	c0,0-0.01,0-0.01,0c-0.13,0.03-0.26,0.06-0.4,0.08c-0.06,0.01-0.11,0.02-0.17,0.02c-0.09,0.01-0.18,0.03-0.27,0.03
	c-0.13,0.01-0.26,0.02-0.4,0.02c-0.02,0-0.05,0-0.07,0c-0.03,0-0.06,0-0.09,0c-1.12-0.02-2.2-0.36-3.1-1.08
	c-0.12-0.1-0.24-0.2-0.35-0.32c-0.99-0.99-1.43-2.26-1.43-3.58C13.08,4.76,13.46,3.58,14.23,2.62z M4.92,10.01L2.6,7.68l2.67-2.69
	L7.6,7.32L4.92,10.01z M16.67,16.41L19,18.74l-2.67,2.69L14,19.09L16.67,16.41z M13.68,13.69l-5.86,5.86l-3.37-3.37l5.86-5.85
	L13.68,13.69z"/>
</svg>
