<?xml version="1.0" encoding="utf-8"?>
<!-- Generator: Adobe Illustrator 23.0.1, SVG Export Plug-In . SVG Version: 6.00 Build 0)  -->
<svg version="1.1" id="Layer_1" xmlns="http://www.w3.org/2000/svg" xmlns:xlink="http://www.w3.org/1999/xlink" x="0px" y="0px"
	 viewBox="0 0 48 33.02" style="enable-background:new 0 0 48 33.02;" xml:space="preserve">
<style type="text/css">
	.st0{fill:#FFFFFF;}
</style>
<g>
	<path class="st0" d="M33.75,7.95c-0.85-1.85-0.02-4.04,1.83-4.89c1.85-0.84,4.04-0.02,4.88,1.83c0.85,1.85,0.03,4.04-1.82,4.88
		C36.78,10.62,34.59,9.8,33.75,7.95z"/>
	<path class="st0" d="M24.72,26.24c-0.43,0.89-0.06,1.97,0.83,2.4c0.25,0.12,0.52,0.18,0.78,0.18c0.67,0,1.31-0.37,1.62-1.01
		l6.64-13.71c0.03-0.06,0.14-0.3,0.14-0.31c0.99-2.29-0.68-5.48-4.02-4.8l-8.98,2.65l-2.28-5.49c-0.99-2.26-4.04-2.88-5.5-0.7
		l-5.66,9c-0.64,1.02-0.33,2.36,0.68,2.99c0.36,0.23,0.76,0.33,1.15,0.33c0.72,0,1.43-0.36,1.84-1.02l3.92-6.22l1.95,6.16
		c1.13,1.83,2.78,2.26,4.32,1.9l7.24-2L24.72,26.24z"/>
	<g>
		<path class="st0" d="M19.26,22.4c-6.53,0-12.73-2.06-17.95-5.96c-0.44-0.33-0.53-0.96-0.2-1.4c0.33-0.44,0.96-0.53,1.4-0.2
			c4.87,3.64,10.66,5.56,16.75,5.56c11.52,0,22.03-7.22,26.16-17.98c0.2-0.52,0.78-0.77,1.29-0.58c0.52,0.2,0.77,0.78,0.58,1.29
			C42.87,14.66,31.6,22.4,19.26,22.4z"/>
	</g>
</g>
</svg>
