<?xml version="1.0" encoding="utf-8"?>
<!-- Generator: Adobe Illustrator 23.0.1, SVG Export Plug-In . SVG Version: 6.00 Build 0)  -->
<svg version="1.1" id="Layer_1" xmlns="http://www.w3.org/2000/svg" xmlns:xlink="http://www.w3.org/1999/xlink" x="0px" y="0px"
	 viewBox="0 0 48 59.6" style="enable-background:new 0 0 48 59.6;" xml:space="preserve">
<style type="text/css">
	.st0{fill:#FFFFFF;}
</style>
<g>
	<g>
		<path class="st0" d="M45.88,51.82c-0.25,0-0.5-0.09-0.69-0.28L1.44,7.79c-0.38-0.38-0.38-0.99,0-1.37c0.38-0.38,0.99-0.38,1.37,0
			l43.75,43.75c0.38,0.38,0.38,0.99,0,1.37C46.37,51.73,46.13,51.82,45.88,51.82z"/>
	</g>
	<g>
		<path class="st0" d="M2.12,51.82c-0.25,0-0.5-0.09-0.69-0.28c-0.38-0.38-0.38-0.99,0-1.37L45.19,6.41c0.38-0.38,0.99-0.38,1.37,0
			c0.38,0.38,0.38,0.99,0,1.37L2.81,51.54C2.62,51.73,2.37,51.82,2.12,51.82z"/>
	</g>
</g>
<g>
	<path class="st0" d="M34.73,23.86c0-5.92-4.83-10.75-10.75-10.75s-10.75,4.83-10.75,10.75c0,0.85,0.09,1.7,0.33,2.56
		c0.28,1.37,0.81,2.23,1.52,3.41c0.14,0.28,0.33,0.57,0.52,0.9c0.24,0.38,0.43,0.76,0.66,1.09c0.95,1.56,1.52,2.46,1.52,4.31v4.45
		c0,1.14,0.81,2.04,1.89,2.23c0.47,2.42,1.89,3.93,4.31,3.93s3.88-1.52,4.31-3.93c1.09-0.19,1.89-1.14,1.89-2.23v-4.45
		c0-1.85,0.57-2.79,1.52-4.31c0.19-0.33,0.43-0.71,0.66-1.09c0.19-0.33,0.38-0.62,0.52-0.9c0.71-1.18,1.23-2.04,1.52-3.41
		C34.63,25.56,34.73,24.71,34.73,23.86z M27.91,41h-7.86c-0.24,0-0.38-0.19-0.38-0.38v-1.47h8.62v1.47
		C28.33,40.81,28.14,41,27.91,41z M23.98,44.89c-0.52,0-1.85,0-2.37-1.99h4.78C25.87,44.89,24.5,44.89,23.98,44.89z M28.33,35.56
		c0,0.19-0.05,0.38-0.05,0.62v1.09h0.05h-8.62v-1.09c0-0.24,0-0.43-0.05-0.62c0-0.38-0.11-1.15-0.33-1.94
		c-0.33-0.99-0.81-1.85-1.42-2.79c-0.19-0.33-0.43-0.66-0.62-1.04c-0.19-0.33-0.38-0.66-0.52-0.9c-0.66-1.14-1.04-1.8-1.28-2.89
		c-0.19-0.71-0.28-1.42-0.28-2.13c0-4.88,3.98-8.86,8.86-8.86s8.86,3.98,8.86,8.86c-0.09,0.71-0.19,1.42-0.38,2.18
		c-0.24,1.04-0.62,1.75-1.28,2.84c-0.19,0.28-0.33,0.57-0.52,0.9c-0.24,0.38-0.43,0.76-0.62,1.04c-0.57,0.95-1.09,1.8-1.42,2.79
		C28.47,34.36,28.38,34.94,28.33,35.56z"/>
	<path class="st0" d="M43.49,22.91h-3.93c-0.52,0-0.95,0.43-0.95,0.95c0,0.52,0.43,0.95,0.95,0.95h3.93c0.52,0,0.95-0.43,0.95-0.95
		C44.43,23.34,44.01,22.91,43.49,22.91z"/>
	<path class="st0" d="M34.96,13.82c0.24,0,0.47-0.09,0.66-0.28l2.79-2.79c0.38-0.38,0.38-0.95,0-1.33c-0.38-0.38-0.95-0.38-1.33,0
		l-2.79,2.79c-0.38,0.38-0.38,0.95,0,1.33C34.49,13.73,34.73,13.82,34.96,13.82z"/>
	<path class="st0" d="M23.98,9.23c0.52,0,0.95-0.43,0.95-0.95V4.35c0-0.52-0.43-0.95-0.95-0.95s-0.95,0.43-0.95,0.95v3.93
		C23.03,8.8,23.46,9.23,23.98,9.23z"/>
	<path class="st0" d="M12.33,13.54c0.19,0.19,0.43,0.28,0.66,0.28s0.47-0.09,0.66-0.28c0.38-0.38,0.38-0.95,0-1.33l-2.79-2.79
		c-0.38-0.38-0.95-0.38-1.33,0c-0.38,0.38-0.38,0.95,0,1.33L12.33,13.54z"/>
	<path class="st0" d="M8.44,22.91H4.51c-0.52,0-0.95,0.43-0.95,0.95c0,0.52,0.43,0.95,0.95,0.95h3.93c0.52,0,0.95-0.43,0.95-0.95
		C9.39,23.34,8.96,22.91,8.44,22.91z"/>
	<path class="st0" d="M12.33,34.18l-2.79,2.79c-0.38,0.38-0.38,0.95,0,1.33c0.19,0.19,0.43,0.28,0.66,0.28s0.47-0.09,0.66-0.28
		l2.79-2.79c0.38-0.38,0.38-0.95,0-1.33C13.27,33.81,12.66,33.81,12.33,34.18z"/>
	<path class="st0" d="M35.63,34.18c-0.38-0.38-0.95-0.38-1.33,0c-0.38,0.38-0.38,0.95,0,1.33l2.79,2.79
		c0.19,0.19,0.43,0.28,0.66,0.28s0.47-0.09,0.66-0.28c0.38-0.38,0.38-0.95,0-1.33L35.63,34.18z"/>
</g>
</svg>
