<?xml version="1.0" encoding="utf-8"?>
<!-- Generator: Adobe Illustrator 23.0.1, SVG Export Plug-In . SVG Version: 6.00 Build 0)  -->
<svg version="1.1" id="Layer_1" xmlns="http://www.w3.org/2000/svg" xmlns:xlink="http://www.w3.org/1999/xlink" x="0px" y="0px"
	 viewBox="0 0 24 24" style="enable-background:new 0 0 24 24;" xml:space="preserve">
<style type="text/css">
	.st0{fill-rule:evenodd;clip-rule:evenodd;fill:#AAB9C4;stroke:#AAB9C4;stroke-width:0.25;stroke-miterlimit:10;}
</style>
<g>
	<g>
		<path class="st0" d="M17.32,7.24l-1.51-1.51L11.19,1.1c-1.07-1.07-2.8-1.07-3.87,0C7.07,1.35,6.88,1.64,6.75,1.95
			c-1.05-0.6-2.4-0.45-3.3,0.44c-0.89,0.9-1.04,2.25-0.44,3.29C2.7,5.82,2.42,6.01,2.16,6.26c-1.07,1.07-1.07,2.8,0,3.87l0.76,0.76
			c-0.27,0.13-0.53,0.31-0.75,0.53c-1.07,1.07-1.07,2.8,0,3.86l5.16,5.16c0.1,0.1,0.2,0.19,0.31,0.26c0.15,0.18,0.31,0.35,0.48,0.52
			c3.3,3.3,8.68,3.28,12-0.05c1.87-1.87,2.7-4.4,2.47-6.83l0.04-10.78c0-1.01-0.8-1.7-1.8-1.54l-1.2,0.19
			c-1.92,0.44-2.3,3.09-2.31,4.73V7.24L17.32,7.24z M12.8,7.87c0.36,0.36,0.36,0.93,0,1.29s-0.93,0.36-1.29,0
			c-0.01-0.01-0.02-0.02-0.03-0.04l0,0L6.03,3.68c-0.35-0.35-0.93-0.35-1.29,0c-0.36,0.36-0.36,0.93,0,1.29l5.15,5.15l0,0l0.01,0.01
			c0.36,0.36,0.36,0.93,0,1.29c-0.34,0.34-0.88,0.36-1.24,0.05l0,0L4.74,7.55c-0.36-0.36-0.94-0.36-1.29,0
			c-0.36,0.36-0.36,0.93,0,1.29l4.36,4.36c0.05,0.05,0.11,0.11,0.16,0.16c0.36,0.36,0.36,0.93,0,1.29C7.61,15,7.03,15,6.68,14.64
			L4.84,12.8c-0.41-0.41-1.03-0.45-1.38-0.1c-0.36,0.36-0.31,0.98,0.1,1.38l5.93,5.93c0.05,0.05,0.11,0.1,0.18,0.14
			c2.6,2.35,6.64,2.26,9.17-0.27c1.48-1.48,2.12-3.47,1.94-5.38c0.03-2.54,0.12-10.64,0.04-10.63c-0.17,0-0.17,0-0.17,0
			C19.9,4,19.24,4.78,19.24,5.52c0,0-0.07,1.72-0.12,3.71c0,0.05-0.01,0.09-0.02,0.13c0.01,0.24-0.08,0.48-0.27,0.67
			c-0.36,0.36-0.93,0.36-1.29,0l-2.16-2.16L9.95,2.45C9.57,2.06,8.97,2.04,8.61,2.39C8.26,2.75,8.28,3.35,8.66,3.73L12.8,7.87
			L12.8,7.87z"/>
	</g>
</g>
</svg>
