<?xml version="1.0" encoding="utf-8"?>
<!-- Generator: Adobe Illustrator 23.0.1, SVG Export Plug-In . SVG Version: 6.00 Build 0)  -->
<svg version="1.1" id="Layer_1" xmlns="http://www.w3.org/2000/svg" xmlns:xlink="http://www.w3.org/1999/xlink" x="0px" y="0px"
	 viewBox="0 0 30 27.82" style="enable-background:new 0 0 30 27.82;" xml:space="preserve">
<style type="text/css">
	.st0{fill:#FFFFFF;}
</style>
<path class="st0" d="M26.11,0.85H3.89C2.35,0.85,1.1,2.1,1.1,3.65v15.01c0,1.54,1.25,2.79,2.79,2.79h14.65l5.34,5.35
	c0.11,0.11,0.25,0.17,0.39,0.17c0.07,0,0.14-0.02,0.21-0.04c0.21-0.09,0.34-0.29,0.34-0.51v-4.97h1.27c1.54,0,2.79-1.25,2.79-2.79
	V3.65C28.9,2.1,27.65,0.85,26.11,0.85z M7.8,13.66c-1.39,0-2.51-1.12-2.51-2.51c0-1.39,1.12-2.51,2.51-2.51s2.51,1.12,2.51,2.51
	C10.31,12.53,9.18,13.66,7.8,13.66z M15,13.66c-1.39,0-2.51-1.12-2.51-2.51c0-1.39,1.12-2.51,2.51-2.51s2.51,1.12,2.51,2.51
	C17.51,12.53,16.39,13.66,15,13.66z M22.2,8.64c1.39,0,2.51,1.12,2.51,2.51c0,1.39-1.12,2.51-2.51,2.51c-1.39,0-2.51-1.12-2.51-2.51
	C19.69,9.76,20.82,8.64,22.2,8.64z"/>
</svg>
