<?xml version="1.0" encoding="utf-8"?>
<!-- Generator: Adobe Illustrator 23.0.1, SVG Export Plug-In . SVG Version: 6.00 Build 0)  -->
<svg version="1.1" id="Layer_1" xmlns="http://www.w3.org/2000/svg" xmlns:xlink="http://www.w3.org/1999/xlink" x="0px" y="0px"
	 viewBox="0 0 48 59.6" style="enable-background:new 0 0 48 59.6;" xml:space="preserve">
<style type="text/css">
	.st0{fill:#FFFFFF;}
</style>
<g>
	<path class="st0" d="M23.67,57.39c0.2,0.24,0.5,0.38,0.81,0.38c0.31,0,0.62-0.14,0.81-0.38l14.51-17.98
		c8.39-8.43,8.37-22.12-0.03-30.53c-4.09-4.09-9.52-6.34-15.29-6.34S13.28,4.79,9.2,8.86c-8.42,8.42-8.43,22.1-0.03,30.53
		L23.67,57.39z M10.68,10.35c3.69-3.69,8.59-5.72,13.8-5.72s10.12,2.03,13.8,5.72c7.62,7.62,7.62,20,0,27.62
		c-0.02,0.02-0.05,0.06-0.07,0.08L24.48,55.07L10.75,38.05c-0.02-0.02-0.05-0.06-0.07-0.08C3.07,30.35,3.07,17.95,10.68,10.35z"/>
	<path class="st0" d="M24.48,33.02c5.03,0,9.12-4.09,9.12-9.12s-4.09-9.12-9.12-9.12s-9.12,4.09-9.12,9.12S19.46,33.02,24.48,33.02z
		 M24.48,16.77c3.93,0,7.13,3.19,7.13,7.13s-3.19,7.13-7.13,7.13s-7.13-3.19-7.13-7.13S20.55,16.77,24.48,16.77z"/>
</g>
</svg>
