<?xml version="1.0" encoding="utf-8"?>
<!-- Generator: Adobe Illustrator 23.0.1, SVG Export Plug-In . SVG Version: 6.00 Build 0)  -->
<svg version="1.1" id="Layer_1" xmlns="http://www.w3.org/2000/svg" xmlns:xlink="http://www.w3.org/1999/xlink" x="0px" y="0px"
	 viewBox="0 0 48 48.78" style="enable-background:new 0 0 48 48.78;" xml:space="preserve">
<style type="text/css">
	.st0{fill:#FFFFFF;}
</style>
<g>
	<path class="st0" d="M24,1.53c-12.61,0-22.86,10.25-22.86,22.86S11.39,47.25,24,47.25S46.86,37,46.86,24.39S36.61,1.53,24,1.53z
		 M24,45.07c-11.41,0-20.68-9.27-20.68-20.68S12.59,3.71,24,3.71s20.68,9.27,20.68,20.68S35.41,45.07,24,45.07z"/>
	<path class="st0" d="M25.09,23.95V8.06c0-0.6-0.49-1.09-1.09-1.09s-1.09,0.49-1.09,1.09v16.33c0,0.29,0.12,0.57,0.32,0.77l8.1,8.1
		c0.22,0.21,0.49,0.32,0.77,0.32c0.28,0,0.56-0.11,0.77-0.32c0.42-0.42,0.42-1.11,0-1.53L25.09,23.95z"/>
</g>
</svg>
