<?xml version="1.0" encoding="utf-8"?>
<!-- Generator: Adobe Illustrator 23.0.1, SVG Export Plug-In . SVG Version: 6.00 Build 0)  -->
<svg version="1.1" id="Layer_1" xmlns="http://www.w3.org/2000/svg" xmlns:xlink="http://www.w3.org/1999/xlink" x="0px" y="0px"
	 viewBox="0 0 420.2 506" style="enable-background:new 0 0 420.2 506;" xml:space="preserve">
<style type="text/css">
	.st0{fill:#FFFFFF;}
</style>
<g>
	<path class="st0" d="M203.1,481.6c1.7,2.1,4.3,3.3,7,3.3s5.3-1.2,7-3.3l125-154.9c72.3-72.6,72.1-190.5-0.3-263
		c-35.2-35.2-82-54.6-131.7-54.6S113.6,28.5,78.4,63.6C5.9,136.1,5.8,254,78.1,326.6L203.1,481.6z M91.2,76.4
		c31.8-31.8,74-49.3,118.9-49.3S297.3,44.6,329,76.4c65.6,65.6,65.6,172.3,0,237.9c-0.2,0.2-0.4,0.5-0.6,0.7L210.1,461.6L91.8,315
		c-0.2-0.2-0.4-0.5-0.6-0.7C25.6,248.7,25.6,141.9,91.2,76.4z"/>
	<path class="st0" d="M210.1,271.64c43.32,0,78.54-35.22,78.54-78.54s-35.22-78.54-78.54-78.54s-78.54,35.22-78.54,78.54
		S166.78,271.64,210.1,271.64z M210.1,131.7c33.89,0,61.4,27.51,61.4,61.4s-27.51,61.4-61.4,61.4s-61.4-27.51-61.4-61.4
		S176.21,131.7,210.1,131.7z"/>
</g>
</svg>
