<svg width="39" height="40" viewBox="0 0 39 40" fill="none" xmlns="http://www.w3.org/2000/svg">
<path d="M33.4748 4.2883L30.1666 7.68041L23.912 1.28487C23.7053 1.07287 23.4296 0.984531 23.1367 1.0022C22.9299 1.03753 22.7231 1.12587 22.5681 1.28487C20.4143 3.49328 19.4321 6.44371 19.4321 9.32346H19.4149C19.4149 11.7969 20.1041 14.2526 21.7755 16.2844L20.1903 17.9097L20.173 17.9274C20.1558 17.9451 20.1558 17.9627 20.1386 17.9627L17.2439 14.977C16.8648 14.606 16.279 14.606 15.8999 14.977L13.7117 17.203L11.489 14.9416L13.9012 12.4506C14.2803 12.0796 14.2803 11.4435 13.9012 11.0725L8.5598 5.57801C8.35304 5.34834 8.07735 5.24233 7.78444 5.27767C7.56044 5.29534 7.37091 5.40134 7.21584 5.56034L1.27138 11.6909C0.909541 12.0796 0.909541 12.6802 1.27138 13.0689L6.61278 18.5811C6.99184 18.9521 7.57767 18.9521 7.95674 18.5811L10.145 16.3374L12.3677 18.6164L4.45899 26.708C4.07992 27.0967 4.07992 27.7151 4.45899 28.0861L11.5923 35.4356C11.9542 35.8243 12.5572 35.8243 12.9363 35.4533C12.9363 35.4533 12.9363 35.4533 12.9535 35.4356L20.8623 27.3087L23.1022 29.6054L20.9312 31.8492C20.5521 32.2202 20.5521 32.8562 20.9312 33.2272L26.2726 38.7217C26.6516 39.0928 27.2375 39.0928 27.6165 38.7217L33.561 32.5912C33.9228 32.2025 33.9228 31.6018 33.561 31.2132L28.2196 25.701C28.0128 25.489 27.7372 25.4006 27.4442 25.4183C27.2375 25.436 27.0307 25.542 26.8756 25.701L24.4462 28.1921L22.2234 25.913L24.3945 23.6869C24.7735 23.3159 24.7735 22.6976 24.4117 22.3089L24.3945 22.2912L21.4825 19.3231C21.4998 19.3055 21.517 19.2878 21.5342 19.2701L23.1194 17.6447C25.032 19.2878 27.3581 20.0121 29.6842 20.0475C29.7531 20.0475 29.822 20.0475 29.8909 20.0475C30.0116 20.0475 30.1322 20.0298 30.2528 20.0298C32.8718 19.9415 35.508 18.9698 37.5412 16.9734C37.6101 16.938 37.6618 16.885 37.7135 16.832C38.0926 16.461 38.0926 15.8427 37.7307 15.454C37.7135 15.4363 37.7135 15.4363 37.6963 15.4187L31.4589 9.04079C31.4589 9.04079 34.7844 5.63101 34.7844 5.64868L33.4748 4.2883ZM23.3262 3.44028L35.6459 16.09C34.612 16.938 33.4404 17.5211 32.1998 17.8391H32.1826C31.9586 17.8921 31.7346 17.9451 31.4934 17.9804C31.39 17.9981 31.3038 18.0157 31.2004 18.0157C31.0454 18.0334 30.8903 18.0687 30.7352 18.0687C30.5112 18.0864 30.2872 18.1041 30.046 18.1041C30.0116 18.1041 29.9599 18.1041 29.9254 18.1041C29.8737 18.1041 29.822 18.1041 29.7703 18.1041C27.8405 18.0687 25.9797 17.4681 24.4289 16.196C24.2222 16.0193 24.0154 15.8427 23.8259 15.6307C22.1201 13.8816 21.3619 11.6379 21.3619 9.3058C21.3447 7.22106 21.9995 5.13633 23.3262 3.44028ZM7.28476 16.4964L3.28733 12.3799L7.88782 7.62741L11.9025 11.7439L7.28476 16.4964ZM27.5304 27.8034L31.5451 31.9199L26.9446 36.6723L22.9299 32.5382L27.5304 27.8034ZM22.3785 22.9979L12.2816 33.3509L6.47493 27.397L16.5719 17.0617L22.3785 22.9979Z" fill="#848890" stroke="#081122" stroke-width="0.7" stroke-miterlimit="10" stroke-linecap="round" stroke-linejoin="round"/>
</svg>
