<svg width="20" height="20" viewBox="0 0 20 20" fill="none" xmlns="http://www.w3.org/2000/svg">
<path d="M10.3114 8.86562L10.9522 8.2256C10.1968 7.26393 9.8455 6.093 9.8455 4.94011C9.8455 3.54649 10.338 2.122 11.4089 1.04691L11.4123 1.04355L11.4123 1.04361C11.5038 0.958806 11.6235 0.89773 11.754 0.883795C11.9271 0.863326 12.0959 0.926914 12.2451 1.03417L12.253 1.03984L12.2598 1.04669L15.211 3.99441L15.8419 3.37304C15.7295 3.14782 15.6697 2.89317 15.6697 2.6261C15.6697 1.6705 16.4582 0.883045 17.4146 0.883045C18.371 0.883045 19.1596 1.6705 19.1596 2.6261C19.1596 3.5817 18.371 4.36912 17.4146 4.36912C17.1456 4.36912 16.895 4.30868 16.6676 4.20069L16.0346 4.83293L18.9849 7.77447L18.9851 7.77463L18.9002 7.85945L18.9851 7.77464L18.9851 7.77465L18.9851 7.77469L18.9853 7.77487L18.986 7.77554L18.9884 7.77796L18.9957 7.78526L18.997 7.78653C19.2205 8.01656 19.2133 8.3872 18.9837 8.60981C18.7537 8.83275 18.3834 8.8259 18.1605 8.5973C18.1603 8.59706 18.1601 8.59683 18.1598 8.59659L11.8915 2.33577C11.3207 3.09673 11.0347 4.01304 11.0347 4.94011C11.0347 6.01602 11.395 7.05002 12.2008 7.8549L12.2011 7.85518C13.006 8.66432 13.9977 8.9929 15.0871 8.9929C15.6395 8.9929 16.1968 8.89431 16.7226 8.69229C16.7425 8.68232 16.7734 8.66733 16.812 8.65887C17.1159 8.57379 17.4359 8.7497 17.5294 9.05647L17.5299 9.0581C17.6178 9.36185 17.4432 9.68262 17.1375 9.77808C16.4704 10.0342 15.7707 10.1596 15.0817 10.1596C13.9185 10.1596 12.7547 9.83466 11.7859 9.0551L11.1492 9.69108L12.4794 11.0096L12.4797 11.0099L12.4849 11.0151L12.4904 11.0206L12.4929 11.0231L12.4929 11.0232C12.7139 11.2573 12.7088 11.6266 12.4791 11.8499C12.4789 11.8501 12.4787 11.8503 12.4784 11.8506L11.5082 12.8196L12.4164 13.7267L13.5114 12.633L13.5146 12.6298L13.5146 12.6299C13.6061 12.545 13.7259 12.4839 13.8565 12.47C14.0331 12.4498 14.2017 12.5115 14.3276 12.6307L14.3302 12.6332L14.3302 12.6332L16.9312 15.2472L16.9322 15.2482L16.9322 15.2482C17.1544 15.4769 17.1544 15.8403 16.9322 16.069L16.9312 16.0701L16.9312 16.0701L14.0406 18.9733L14.0391 18.9748C13.8102 19.1967 13.4466 19.1967 13.2177 18.9748L13.2163 18.9734L13.2163 18.9734L10.6154 16.3649L10.6152 16.3647L10.6107 16.3601L10.6099 16.3594L10.6095 16.359L10.609 16.3584L10.6088 16.3583C10.3865 16.1294 10.3864 15.7653 10.6151 15.5365C10.6152 15.5364 10.6153 15.5363 10.6154 15.5362L11.5873 14.5556L10.6681 13.6375L6.90231 17.404L6.90229 17.404L6.89693 17.4094L6.89689 17.4094C6.6668 17.6392 6.29543 17.6323 6.07236 17.4034C6.07215 17.4032 6.07195 17.403 6.07175 17.4028L2.59782 13.9223C2.36855 13.6933 2.36855 13.3226 2.59782 13.0936L2.59788 13.0936L6.36335 9.3378L5.45526 8.43079L4.47284 9.41204L4.47157 9.41331L4.47157 9.4133C4.24268 9.63519 3.87912 9.63519 3.65023 9.4133L3.64868 9.4118L3.6487 9.41178L1.04767 6.79781L1.04667 6.7968L1.04667 6.79679C0.824442 6.5681 0.824442 6.20471 1.04667 5.97602L1.04769 5.97497L1.0477 5.97498L3.93695 3.0731C4.02411 2.98006 4.14614 2.91158 4.28494 2.89771L4.28767 2.89744L4.28768 2.89747C4.45933 2.88428 4.6347 2.94316 4.75824 3.07266L7.35811 5.68014L7.35828 5.68031L7.36289 5.68492L7.36366 5.68569L7.36409 5.68612L7.36473 5.68678L7.3648 5.68685L7.36616 5.68828L7.3687 5.69107L7.36871 5.69108C7.36918 5.69162 7.37098 5.69366 7.37312 5.69639C7.37397 5.69748 7.37675 5.70103 7.37986 5.7059C7.38228 5.70988 7.38628 5.71731 7.38789 5.72071C7.39697 5.75032 7.39817 5.78127 7.27867 5.7704C7.45564 5.95253 7.45564 6.24177 7.2733 6.42389L10.3114 8.86562ZM10.3114 8.86562L8.98308 7.53885C8.75395 7.31 8.3886 7.30993 8.1594 7.53865L10.3114 8.86562ZM17.3825 2.04972C17.7078 2.04972 17.9596 2.30147 17.9596 2.6261C17.9596 2.95072 17.7078 3.20245 17.3825 3.20245C17.0574 3.20245 16.8057 2.95114 16.8053 2.62691C16.8102 2.3005 17.0636 2.04972 17.3825 2.04972ZM2.26755 6.3863L4.33986 4.30655L6.1224 6.09187L4.05009 8.17163L2.26755 6.3863ZM6.47959 16.1693L3.82317 13.516L8.56581 8.78422L11.2222 11.4324L6.47959 16.1693ZM11.8297 15.9532L13.902 13.8734L15.6845 15.6587L13.6122 17.7384L11.8297 15.9532Z" fill="white" stroke="white" stroke-width="0.24"/>
</svg>
