<svg width="17" height="17" viewBox="0 0 17 17" fill="none" xmlns="http://www.w3.org/2000/svg">
<path d="M7.96992 10.3809C7.96992 9.83398 8.03633 9.39844 8.16914 9.07422C8.30195 8.75 8.54414 8.43164 8.8957 8.11914C9.25117 7.80273 9.4875 7.54688 9.60469 7.35156C9.72188 7.15234 9.78047 6.94336 9.78047 6.72461C9.78047 6.06445 9.47578 5.73438 8.86641 5.73438C8.57734 5.73438 8.34492 5.82422 8.16914 6.00391C7.99727 6.17969 7.90742 6.42383 7.89961 6.73633H6.20039C6.2082 5.99023 6.44844 5.40625 6.92109 4.98438C7.39766 4.5625 8.04609 4.35156 8.86641 4.35156C9.69453 4.35156 10.3371 4.55273 10.7941 4.95508C11.2512 5.35352 11.4797 5.91797 11.4797 6.64844C11.4797 6.98047 11.4055 7.29492 11.257 7.5918C11.1086 7.88477 10.8488 8.21094 10.4777 8.57031L10.0031 9.02148C9.70625 9.30664 9.53633 9.64062 9.49336 10.0234L9.46992 10.3809H7.96992ZM7.8 12.1797C7.8 11.918 7.88789 11.7031 8.06367 11.5352C8.24336 11.3633 8.47188 11.2773 8.74922 11.2773C9.02656 11.2773 9.25313 11.3633 9.42891 11.5352C9.60859 11.7031 9.69844 11.918 9.69844 12.1797C9.69844 12.4375 9.61055 12.6504 9.43477 12.8184C9.26289 12.9863 9.03438 13.0703 8.74922 13.0703C8.46406 13.0703 8.23359 12.9863 8.05781 12.8184C7.88594 12.6504 7.8 12.4375 7.8 12.1797Z" fill="#838891"/>
<circle cx="8.5" cy="8.5" r="8" stroke="#838891"/>
</svg>
